<svg width="48" height="48" viewBox="0 0 48 48" fill="none" xmlns="http://www.w3.org/2000/svg">
<rect x="5.59998" y="9.9895" width="38.4" height="29.0093" rx="2" fill="white"/>
<path d="M29.6 19.4763C29.2072 19.4763 28.8476 19.6965 28.6691 20.0464L28.44 20.4956L25.2446 27.8796C24.9589 28.5399 25.4429 29.2768 26.1624 29.2768H29.6C31.12 29.2768 32.36 28.8456 33.24 27.9831C34.16 27.1207 34.6 25.9054 34.6 24.3765C34.6 22.8085 34.16 21.6324 33.24 20.77C32.32 19.9075 31.12 19.4763 29.6 19.4763Z" fill="#FF0B29"/>
<path d="M2 0.581055C0.895431 0.581055 0 1.47649 0 2.58105V45.6232C0 46.7278 0.895431 47.6232 2 47.6232H46C47.1046 47.6232 48 46.7278 48 45.6232V2.58106C48 1.47649 47.1046 0.581055 46 0.581055H2ZM40.28 29.8648C39.28 31.4329 37.88 32.6089 36.08 33.4322C34.28 34.2554 32.2 34.6866 29.88 34.6866H22.32H21.88H16.6373C15.838 34.6866 15.1154 34.2107 14.7998 33.4764L7.03957 15.4222C6.75589 14.7622 7.23992 14.0273 7.95829 14.0273H12.7476C13.5545 14.0273 14.2824 14.5122 14.5933 15.2569L18.208 23.9166C18.5486 24.7326 19.7029 24.7374 20.0504 23.9244L23.7612 15.2413C24.0759 14.5049 24.7995 14.0273 25.6003 14.0273H25.76H29.08H29.92C32.28 14.0273 34.32 14.4585 36.12 15.2817C37.92 16.105 39.32 17.3202 40.32 18.8491C41.32 20.4172 41.8 22.2204 41.8 24.3373C41.76 26.4542 41.28 28.2967 40.28 29.8648Z" fill="#FF0B29"/>
</svg>
