<svg width="40" height="40" viewBox="0 0 40 40" fill="none" xmlns="http://www.w3.org/2000/svg">
<path fill-rule="evenodd" clip-rule="evenodd" d="M0 20C0 8.955 8.955 0 20 0C31.045 0 40 8.955 40 20C40 31.045 31.045 40 20 40C8.955 40 0 31.045 0 20ZM29.7165 19.2002C29.7067 19.0724 29.6969 18.9444 29.6902 18.8161L29.6732 18.7125V18.7125C29.6506 18.5743 29.6281 18.4361 29.5974 18.2979C28.9064 14.83 26.9293 12.3858 23.695 10.9814C21.9387 10.22 20.0927 10.0696 18.2116 10.4088C16.4073 10.7319 14.8397 11.5445 13.4641 12.7345C13.0386 13.1024 12.6643 13.5311 12.3188 13.979C10.9272 15.7801 10.2362 17.8212 10.2458 20.0958C10.248 20.3387 10.2639 20.5801 10.2799 20.8221C10.287 20.9307 10.2942 21.0393 10.3002 21.1483C10.3034 21.1691 10.3081 21.1899 10.3129 21.2107L10.313 21.2107C10.3178 21.2315 10.3225 21.2523 10.3257 21.2731C10.4313 22.0441 10.6009 22.7991 10.892 23.5221C11.0583 23.9315 11.2375 24.3314 11.4486 24.7185C11.4726 24.7622 11.4992 24.8044 11.5257 24.8466L11.5257 24.8466C11.6373 25.0239 11.7483 25.2002 11.663 25.4767C11.525 25.9302 11.426 26.3972 11.3269 26.8643C11.2813 27.0793 11.2357 27.2944 11.1863 27.5082C11.1202 27.794 11.0533 28.0798 10.986 28.3673L10.9859 28.3674C10.9229 28.6367 10.8594 28.9075 10.796 29.1813L10.8328 29.175C10.8702 29.1685 10.9019 29.1631 10.9336 29.1558C11.551 29.0118 12.1676 28.8679 12.7842 28.7239L12.7864 28.7234L12.8029 28.7195L12.8064 28.7187L12.8077 28.7184C13.4165 28.5763 14.0254 28.4341 14.635 28.292C14.7342 28.2696 14.8205 28.2568 14.9229 28.3176C16.884 29.5045 19.005 29.9555 21.2796 29.6612C23.4135 29.3861 25.2658 28.4903 26.7982 26.9835C28.7688 25.0481 29.7414 22.6807 29.751 19.9166C29.7531 19.6772 29.7348 19.4392 29.7165 19.2008V19.2007V19.2007V19.2007V19.2006V19.2006V19.2006V19.2005V19.2005V19.2005V19.2004V19.2004V19.2004V19.2003V19.2003V19.2003V19.2002ZM9.21325 21.3007L9.21325 21.3007C9.22143 21.3744 9.22955 21.4477 9.24124 21.5197C9.25403 21.5933 9.24444 21.6381 9.15806 21.6509C8.84774 21.6957 8.53743 21.7436 8.23031 21.7916C8.15353 21.8044 8.12793 21.7756 8.11834 21.7021C8.09594 21.5197 8.07035 21.3342 8.04476 21.1518C8.01277 20.5952 7.98717 20.0353 8.01277 19.4787C8.02855 19.1062 8.06924 18.7369 8.11026 18.3646L8.11194 18.3494C8.12474 18.2214 8.17592 18.1958 8.29749 18.2182C8.56302 18.2662 8.83175 18.3046 9.10048 18.3398C9.21245 18.3558 9.26043 18.3813 9.24124 18.5189C9.11327 19.3955 9.08768 20.2752 9.19645 21.1582C9.2027 21.2057 9.20797 21.2532 9.21322 21.3004L9.21322 21.3005L9.21323 21.3005L9.21323 21.3005L9.21323 21.3006L9.21323 21.3006L9.21324 21.3006L9.21324 21.3006L9.21324 21.3007L9.21325 21.3007ZM31.9904 20.4862C32.0191 19.9295 31.9968 19.3729 31.9392 18.8162C31.9338 18.7686 31.9291 18.721 31.9244 18.6732L31.9244 18.673C31.9152 18.5797 31.906 18.4859 31.8912 18.3907C31.8656 18.2148 31.8048 18.1668 31.6353 18.2148C31.4831 18.2583 31.3266 18.2796 31.1706 18.3008L31.1706 18.3008L31.1705 18.3008L31.1704 18.3008L31.1703 18.3009L31.1702 18.3009L31.1701 18.3009C31.0967 18.3109 31.0233 18.3209 30.9506 18.3332L30.9324 18.336C30.8401 18.3503 30.7937 18.3575 30.7733 18.3845C30.7527 18.4117 30.7589 18.4592 30.7712 18.5548L30.7715 18.5571C30.7838 18.6373 30.7902 18.7205 30.7964 18.801L30.7971 18.8098C30.9027 19.6992 30.8835 20.5854 30.7619 21.4715C30.7459 21.5899 30.7619 21.6411 30.8899 21.6571C31.1714 21.6923 31.4497 21.737 31.728 21.785C31.84 21.8042 31.8752 21.7658 31.8912 21.6603C31.9488 21.2732 31.9712 20.8797 31.9904 20.4862ZM9.36279 17.3765C9.04607 17.2997 8.73256 17.2229 8.41584 17.1429C8.34572 17.1261 8.35675 17.0847 8.36916 17.0381L8.3721 17.0269L8.37425 17.0182C8.50861 16.4775 8.67177 15.9464 8.88291 15.4346C9.10046 14.9099 9.35319 14.4013 9.63791 13.9118C9.6923 13.8158 9.73389 13.7998 9.82986 13.8606C10.0794 14.0206 10.3353 14.1709 10.5945 14.3181C10.684 14.3693 10.6776 14.4109 10.6296 14.4908C10.1178 15.3578 9.73709 16.2856 9.47796 17.2645C9.44983 17.3832 9.44613 17.3829 9.36847 17.3769L9.36279 17.3765ZM30.5228 17.2911C30.5326 17.3417 30.5425 17.393 30.6211 17.3799L30.7173 17.3561L30.7174 17.356L30.7175 17.356L30.7176 17.356L30.7176 17.356L30.7177 17.3559L30.7178 17.3559L30.7179 17.3559L30.718 17.3559L30.7181 17.3559L30.7182 17.3558L30.7183 17.3558C31.0085 17.2839 31.2966 17.2125 31.5872 17.1463C31.6519 17.1317 31.641 17.0927 31.6289 17.0493L31.6256 17.0376C31.6001 16.9513 31.5769 16.865 31.5537 16.7786L31.5537 16.7784C31.5305 16.6921 31.5073 16.6057 31.4817 16.5193C31.2001 15.5884 30.8099 14.7086 30.3172 13.8704C30.2724 13.7968 30.2404 13.7968 30.1668 13.8448C29.9141 14.0112 29.655 14.1711 29.3926 14.3247C29.3062 14.3727 29.319 14.4143 29.3606 14.4847C29.575 14.8462 29.7669 15.2205 29.9365 15.6044C30.1732 16.1386 30.3652 16.6921 30.5155 17.2583C30.5184 17.2687 30.5206 17.2799 30.5228 17.2911ZM17.3799 9.37873C17.3851 9.46313 17.3295 9.47143 17.2794 9.47891C17.2687 9.4805 17.2582 9.48206 17.2487 9.48431C16.5545 9.66986 15.8795 9.91299 15.2332 10.2329C14.9773 10.3609 14.7246 10.4984 14.475 10.6424C14.3951 10.6904 14.3599 10.6744 14.3151 10.6008C14.1615 10.3385 14.008 10.0793 13.8448 9.82341C13.7936 9.74344 13.816 9.70825 13.8896 9.66666C14.8621 9.09401 15.8955 8.66532 16.9864 8.3806C17.0983 8.35181 17.1335 8.3742 17.1559 8.48297C17.1957 8.66283 17.2409 8.84131 17.2862 9.02022L17.2862 9.02041L17.2863 9.02059L17.2863 9.02078L17.2864 9.02096L17.2864 9.02115L17.2864 9.02134L17.2865 9.02152L17.2866 9.02194C17.3105 9.11614 17.3343 9.21046 17.3575 9.30515C17.365 9.3252 17.3705 9.34525 17.3757 9.36376L17.3799 9.37873ZM23.5798 8.54354C23.3655 8.47956 23.1511 8.41877 22.9592 8.36439C22.8662 8.35312 22.8576 8.40386 22.8503 8.44672L22.8503 8.44687L22.8488 8.4557L22.8472 8.46356C22.7768 8.74828 22.7065 9.03301 22.6329 9.31453C22.6041 9.41371 22.6297 9.45529 22.732 9.48089C23.7174 9.73362 24.6483 10.1175 25.5217 10.639C25.6145 10.6966 25.6433 10.6614 25.688 10.5878C25.7198 10.5346 25.7515 10.4812 25.7832 10.4278C25.898 10.2341 26.013 10.0401 26.1359 9.85199C26.2031 9.74962 26.1871 9.70803 26.0847 9.64724C25.2914 9.18657 24.4564 8.81227 23.5798 8.54354ZM11.2247 13.5376C11.2157 13.5311 11.2062 13.5247 11.1963 13.518L11.1963 13.518L11.1963 13.518L11.1963 13.518C11.1817 13.5081 11.1664 13.4978 11.1511 13.4864L11.0126 13.3845C10.8059 13.2322 10.5983 13.0794 10.3865 12.9329C10.3213 12.8886 10.3412 12.8655 10.3681 12.8342C10.3742 12.8272 10.3806 12.8196 10.3865 12.8114C10.6649 12.4403 10.9656 12.0884 11.2823 11.7524C11.7398 11.2662 12.2388 10.8247 12.7667 10.4184C12.8563 10.348 12.9043 10.3416 12.9747 10.444C13.1314 10.6775 13.3042 10.9015 13.4769 11.1254C13.5409 11.2086 13.5505 11.2566 13.4545 11.327C12.6419 11.9348 11.9349 12.645 11.3239 13.4544C11.3188 13.4613 11.3142 13.4688 11.3095 13.4763C11.2904 13.5067 11.2709 13.5376 11.2247 13.5376ZM27.1512 10.3674L27.118 10.3447L27.0993 10.3654L27.0993 10.3654L27.0993 10.3654C27.0801 10.3864 27.0614 10.4069 27.0445 10.4311C26.9926 10.5003 26.9419 10.5703 26.8914 10.6402L26.8913 10.6402L26.8913 10.6403L26.8913 10.6403L26.8913 10.6403L26.8913 10.6403L26.8913 10.6404L26.8912 10.6404L26.8912 10.6404C26.8015 10.7645 26.7119 10.8883 26.6158 11.0069L26.5995 11.0267C26.5149 11.1299 26.4719 11.1822 26.4768 11.2297C26.4818 11.2787 26.5378 11.3224 26.6516 11.4112L26.6542 11.4132C27.3964 11.9891 28.0586 12.6481 28.6248 13.4031C28.7304 13.5439 28.7976 13.5407 28.9192 13.4383C29.0296 13.3483 29.1453 13.2648 29.2613 13.1812L29.2613 13.1811L29.2614 13.1811L29.2614 13.1811L29.2615 13.181L29.2615 13.181L29.2616 13.1809L29.2616 13.1809L29.2617 13.1809L29.2617 13.1808C29.3269 13.1338 29.3922 13.0867 29.4566 13.0384C29.6518 12.8944 29.6518 12.8944 29.5078 12.6993C28.8584 11.8291 28.0874 11.0805 27.2268 10.4215C27.2037 10.403 27.1789 10.3862 27.1512 10.3674ZM19.9999 9.12601C19.4945 9.142 18.989 9.1612 18.4899 9.24118C18.3908 9.25717 18.3588 9.22838 18.3428 9.13561C18.3012 8.84128 18.2596 8.54696 18.2084 8.25264C18.186 8.13107 18.2596 8.12148 18.3396 8.11188C19.1394 8.00311 19.9392 7.97112 20.7453 8.0255C20.9237 8.03677 21.101 8.05575 21.2778 8.07468L21.2779 8.07469L21.278 8.07469L21.278 8.0747L21.2781 8.07471L21.2781 8.07471L21.2782 8.07472L21.2783 8.07472L21.2783 8.07473C21.4026 8.08804 21.5267 8.10132 21.6507 8.11188C21.7627 8.12148 21.8043 8.15987 21.7819 8.28143C21.7307 8.55976 21.6923 8.83809 21.6539 9.11641C21.6411 9.21878 21.6091 9.26037 21.4939 9.24118C21.0013 9.158 20.5022 9.142 19.9999 9.12601ZM8.39667 30.2693C8.23991 30.9859 8.82215 31.6705 9.55156 31.6257C9.56817 31.6237 9.58568 31.6224 9.60371 31.621C9.64473 31.6178 9.68849 31.6144 9.73071 31.6033L10.1815 31.4977L10.1822 31.4976L10.1823 31.4975L10.1824 31.4975L10.1825 31.4975L10.1827 31.4975L10.1829 31.4974C10.7722 31.3592 11.3632 31.2207 11.9541 31.0882C12.0725 31.0595 12.0789 31.0083 12.0533 30.9091L12.0533 30.909L12.0533 30.909L12.0533 30.9089L12.0533 30.9089L12.0532 30.9089L12.0532 30.9089L12.0532 30.9088C11.9861 30.6402 11.9189 30.3715 11.8645 30.0997C11.8389 29.9813 11.8006 29.9461 11.6758 29.9781C11.0704 30.1244 10.4597 30.2652 9.85102 30.4056L9.85095 30.4057L9.85088 30.4057L9.85069 30.4057L9.67952 30.4452C9.50677 30.4836 9.50037 30.4772 9.54196 30.3013C9.60304 30.0447 9.66366 29.7877 9.72435 29.5304C9.82258 29.1139 9.92098 28.6966 10.0218 28.2794C10.0442 28.1898 10.025 28.161 9.93865 28.1418C9.64753 28.0779 9.35641 28.0107 9.06849 27.9371C8.96291 27.9115 8.93092 27.9531 8.90853 28.0491C8.84505 28.3269 8.77977 28.6039 8.71455 28.8807L8.71453 28.8808L8.71451 28.8808L8.71449 28.8809L8.71448 28.881L8.71446 28.8811L8.71444 28.8811C8.6055 29.3434 8.4967 29.8051 8.39667 30.2693ZM14.4079 29.348C14.4512 29.3426 14.4853 29.3647 14.52 29.3871C14.5263 29.3912 14.5326 29.3953 14.539 29.3992C15.3964 29.8951 16.3018 30.2693 17.2615 30.5189C17.3735 30.5477 17.3927 30.5925 17.3639 30.6948L17.3639 30.6949L17.3639 30.6949L17.3639 30.6949L17.3639 30.6949L17.3639 30.6949L17.3638 30.695C17.2903 30.9669 17.2167 31.2387 17.1591 31.517C17.1335 31.6418 17.0856 31.6482 16.9768 31.6226C16.0778 31.389 15.2141 31.0531 14.3951 30.6181C14.3023 30.5701 14.2223 30.5573 14.1231 30.5829C13.9556 30.6261 13.786 30.6643 13.6161 30.7025L13.616 30.7025L13.6159 30.7026L13.6158 30.7026C13.4841 30.7322 13.3523 30.7619 13.221 30.794C13.1186 30.8196 13.0706 30.8132 13.0482 30.6948C12.9937 30.4219 12.9276 30.1548 12.8609 29.8852L12.8609 29.8852L12.8499 29.8407L12.8493 29.8382C12.8336 29.7691 12.8222 29.7189 12.9139 29.6999C13.1567 29.644 13.4004 29.5873 13.644 29.5305L13.6446 29.5304L13.6448 29.5304C13.8888 29.4736 14.1327 29.4168 14.3759 29.3608C14.3855 29.3512 14.3951 29.348 14.4079 29.348ZM10.5305 26.088C10.5721 25.9184 10.6137 25.7489 10.6553 25.5697L10.6501 25.56L10.642 25.5446C10.6268 25.5156 10.6103 25.4841 10.5881 25.4545C10.0858 24.5972 9.72112 23.6854 9.47158 22.7289C9.44919 22.6393 9.4076 22.6105 9.32762 22.6297C9.17246 22.6681 9.01651 22.7065 8.86055 22.7449C8.70459 22.7832 8.54863 22.8216 8.39347 22.86C8.34229 22.8728 8.33269 22.8824 8.34868 22.9432C8.36927 23.0135 8.38895 23.0837 8.40857 23.1538L8.4086 23.1539C8.4408 23.2689 8.47287 23.3834 8.50864 23.4967C8.74218 24.2357 9.0301 24.9491 9.3948 25.6305C9.43639 25.7041 9.44279 25.7745 9.4236 25.8576C9.38521 26.0144 9.34842 26.1727 9.31163 26.3311L9.31158 26.3313L9.31152 26.3315L9.31147 26.3318L9.31141 26.332C9.27469 26.4901 9.23798 26.6481 9.19966 26.8046C9.17726 26.891 9.18686 26.9293 9.28284 26.9485C9.58036 27.0125 9.87468 27.0829 10.169 27.1565C10.2618 27.1789 10.2906 27.1533 10.3098 27.0637C10.3551 26.8535 10.4031 26.6446 10.4512 26.4353L10.4512 26.4352L10.4512 26.4351L10.4512 26.4351L10.4513 26.435C10.4778 26.3195 10.5043 26.204 10.5305 26.088ZM27.134 29.6485C27.0913 29.6485 27.0742 29.6188 27.058 29.5906L27.0507 29.5782C27.0487 29.5748 27.0466 29.5716 27.0445 29.5685C26.9771 29.4791 26.9111 29.3888 26.8452 29.2984L26.8451 29.2983C26.7388 29.1527 26.6323 29.0069 26.5198 28.8647C26.4494 28.7751 26.4654 28.7303 26.5518 28.6664C27.1052 28.2441 27.6011 27.761 28.0778 27.2619C28.2857 27.0412 28.4713 26.8013 28.6568 26.5613C28.7272 26.4717 28.772 26.4493 28.868 26.5261C29.0887 26.7021 29.3158 26.8684 29.5494 27.0284C29.6518 27.0988 29.6518 27.1404 29.5782 27.2363C28.9 28.1257 28.1162 28.9127 27.2204 29.5877C27.209 29.5963 27.1963 29.6048 27.1832 29.6137C27.1669 29.6247 27.15 29.6361 27.134 29.6485ZM22.7042 30.5256C22.6582 30.5357 22.61 30.5464 22.6233 30.6338C22.6529 30.7562 22.6842 30.881 22.7157 31.0068C22.7592 31.18 22.8032 31.3553 22.844 31.5296C22.8632 31.6287 22.8984 31.6447 22.9944 31.6191C24.0949 31.3376 25.1314 30.9025 26.1103 30.3299C26.1903 30.2851 26.1999 30.2499 26.1519 30.1731C25.992 29.914 25.8352 29.6548 25.6816 29.3925C25.6369 29.3157 25.6017 29.3093 25.5217 29.3541C25.2818 29.4949 25.0386 29.6261 24.7923 29.7508C24.1333 30.0803 23.4454 30.3299 22.732 30.5186C22.7277 30.52 22.7233 30.5211 22.7188 30.5222C22.714 30.5234 22.7091 30.5245 22.7042 30.5256ZM19.9968 31.9969C19.4561 32.0129 18.9218 31.9617 18.3876 31.8977C18.195 31.8756 18.1956 31.8722 18.2264 31.6785L18.2276 31.6706C18.2692 31.4082 18.3108 31.1459 18.3428 30.8804C18.3556 30.7716 18.394 30.746 18.5091 30.762C19.5041 30.906 20.5022 30.906 21.5004 30.762C21.6027 30.746 21.6443 30.7684 21.6571 30.8708C21.6955 31.1619 21.7371 31.4498 21.7915 31.7377C21.8172 31.8779 21.733 31.8851 21.6531 31.8919L21.6531 31.8919C21.6436 31.8927 21.6343 31.8935 21.6251 31.8945C21.0813 31.9585 20.5406 32.0129 19.9968 31.9969ZM31.3503 22.8002C31.1123 22.7421 30.8724 22.6835 30.6307 22.6231C30.5503 22.6009 30.5372 22.6508 30.5227 22.7061C30.5204 22.7147 30.5181 22.7233 30.5156 22.7318C30.2564 23.7172 29.8725 24.6481 29.3543 25.5247C29.3095 25.6015 29.3127 25.6399 29.3927 25.6847C29.655 25.8382 29.9173 25.9918 30.1733 26.1549C30.25 26.2029 30.2884 26.1965 30.3332 26.1165C30.49 25.8382 30.6435 25.5599 30.7843 25.272C31.1394 24.5426 31.4209 23.7844 31.6193 22.9974C31.6215 22.9897 31.6242 22.9819 31.6269 22.974C31.6435 22.9258 31.6606 22.8759 31.5809 22.8566C31.5042 22.8378 31.4274 22.8191 31.3503 22.8002Z" fill="#FF0B29"/>
</svg>
