<svg width="40" height="40" viewBox="0 0 40 40" fill="none" xmlns="http://www.w3.org/2000/svg">
<path d="M20 0C8.955 0 0 8.955 0 20C0 31.045 8.955 40 20 40C31.045 40 40 31.045 40 20C40 8.955 31.045 0 20 0ZM20 28.3333L16.8433 24.9867C17.6517 24.13 18.7667 23.6 20 23.6C21.2333 23.6 22.3467 24.13 23.1567 24.9867L20 28.3333ZM24.6133 23.4417C23.4317 22.19 21.8 21.4167 20 21.4167C18.2 21.4167 16.5683 22.1917 15.3867 23.4433L13.4467 21.3833C15.1233 19.605 17.44 18.505 20 18.505C22.56 18.505 24.8767 19.605 26.5533 21.3833L24.6133 23.4417ZM28.01 19.8367C25.96 17.6633 23.1283 16.32 20 16.32C16.8717 16.32 14.04 17.665 11.99 19.8383L10 17.7267C12.5583 15.0117 16.0933 13.3333 20 13.3333C23.9067 13.3333 27.4417 15.0117 30 17.7267L28.01 19.8367Z" fill="#FF0B29"/>
</svg>
