<svg width="175" height="65" viewBox="0 0 175 65" fill="none" xmlns="http://www.w3.org/2000/svg">
<path d="M11.187 45.6205C7.05942 49.7481 6.8374 57.2716 6.8374 57.2716C6.8374 57.2716 14.3559 57.0496 18.4885 52.922C22.6212 48.7944 24.3317 43.814 22.3133 41.8007C20.295 39.7823 15.3146 41.4929 11.187 45.6205Z" fill="url(#paint0_linear)"/>
<path opacity="0.2" d="M19.9569 41.9622C20.6785 41.9622 21.2285 42.1489 21.5968 42.5122C22.9845 43.8998 21.7532 48.2242 17.772 52.2105C14.8958 55.0867 10.1072 55.9344 7.93742 56.1767C8.17963 54.0069 9.02735 49.2183 11.8985 46.3421C14.5577 43.6778 17.7215 41.9622 19.9569 41.9622ZM19.9569 40.953C17.5298 40.953 14.1389 42.6686 11.187 45.6256C7.05942 49.7531 6.8374 57.2767 6.8374 57.2767C6.8374 57.2767 14.3559 57.0546 18.4885 52.9271C22.6212 48.7995 24.3317 43.8191 22.3133 41.8058C21.7381 41.2204 20.9257 40.953 19.9569 40.953Z" fill="#424242"/>
<path d="M12.4387 47.0738C9.84002 49.6724 9.69873 54.4055 9.69873 54.4055C9.69873 54.4055 14.4318 54.2642 17.0305 51.6656C19.6292 49.0669 20.709 45.9283 19.4374 44.6618C18.1658 43.3953 15.0424 44.47 12.4387 47.0738Z" fill="url(#paint1_linear)"/>
<path d="M17.7669 47.1192C20.2394 49.7583 23.484 49.4808 23.7514 49.0468L26.012 45.3733C26.1482 45.1513 26.0221 44.7981 25.9262 44.7073L19.8257 38.6067C19.7298 38.5108 19.3917 38.3998 19.1697 38.5361L15.4962 40.7967C15.0673 41.0641 14.5829 43.7132 17.7669 47.1192Z" fill="#546E7A"/>
<path d="M34.3783 53.8302C33.8737 54.239 33.1975 54.1481 33.1117 53.5426C32.8746 51.8674 33.031 48.5017 30.9218 46.3925C28.863 44.3337 25.5176 44.031 25.5176 44.031L38.1123 37.8245C38.1123 37.8245 40.4839 41.4828 39.177 46.6902C38.087 50.9944 36.2251 52.3215 34.3783 53.8302Z" fill="#0288D1"/>
<path opacity="0.2" d="M37.401 39.858C37.4918 40.1052 37.5877 40.3878 37.6734 40.7007C38.0166 41.9521 38.3042 43.9452 37.7037 46.3168C36.9418 49.3545 35.8014 50.6563 34.4642 51.7967C34.2927 49.8692 33.9193 47.2453 31.9867 45.3177C31.2802 44.6113 30.4527 44.0764 29.6403 43.6778L37.401 39.858ZM38.1074 37.8245L25.5127 44.031C25.5127 44.031 28.8632 44.3388 30.9169 46.3925C33.0261 48.5017 32.8697 51.8674 33.1069 53.5426C33.1573 53.9009 33.4197 54.0825 33.7275 54.0825C33.9394 54.0825 34.1716 53.9968 34.3734 53.8302C36.2202 52.3215 38.0822 50.9944 39.167 46.6902C40.484 41.4777 38.1074 37.8245 38.1074 37.8245Z" fill="#424242"/>
<path d="M10.4303 30.6037C9.93584 31.0276 10.1124 31.7845 10.718 31.8703C12.3932 32.1074 15.7589 31.951 17.8681 34.0602C19.9268 36.1189 20.3557 39.0355 20.3557 39.0355L26.4412 26.1532C26.4412 26.1532 23.2218 24.6444 18.5392 25.8605C15.3098 26.7032 12.1056 29.1606 10.4303 30.6037Z" fill="#0288D1"/>
<path opacity="0.2" d="M22.1721 26.9C23.0148 26.9 23.7414 26.9908 24.3167 27.1019L20.5322 35.1249C20.1285 34.4034 19.6088 33.6616 18.9377 32.9955C17.1463 31.2042 14.7647 30.7551 12.8876 30.5634C14.5174 29.3221 16.7326 27.8991 18.9124 27.3289C20.0024 27.0413 21.0973 26.9 22.1721 26.9ZM22.1721 25.3862C21.1074 25.3862 19.8813 25.5124 18.539 25.8605C15.3096 26.7032 12.1105 29.1606 10.4352 30.6037C9.94072 31.0276 10.1173 31.7845 10.7228 31.8703C12.3981 32.1074 15.7638 31.951 17.873 34.0602C19.9317 36.119 20.3606 39.0355 20.3606 39.0355L26.441 26.1532C26.441 26.1532 24.8061 25.3862 22.1721 25.3862Z" fill="#424242"/>
<path opacity="0.2" d="M19.3108 40.2314L24.3163 45.237L22.737 47.8054C22.6865 47.8104 22.631 47.8104 22.5704 47.8104C22.081 47.8104 20.3755 47.6843 18.8718 46.0796C16.9694 44.0461 16.6717 42.4566 16.6969 41.836L19.3108 40.2314ZM19.4167 38.4703C19.3309 38.4703 19.2452 38.4905 19.1695 38.5309L15.496 40.7915C15.0621 41.0589 14.5776 43.708 17.7616 47.1141C19.3814 48.8448 21.3342 49.3242 22.5654 49.3242C23.2113 49.3242 23.6553 49.193 23.7461 49.0416L26.0067 45.3682C26.143 45.1461 26.0168 44.7929 25.921 44.7021L19.8254 38.6066C19.7649 38.546 19.5933 38.4703 19.4167 38.4703Z" fill="#424242"/>
<path d="M42.4214 9.32996C44.4651 10.2685 47.2202 11.8832 49.8491 14.5122C50.7776 15.4406 51.5698 16.3892 52.256 17.3177C53.5831 19.109 54.4914 20.8196 55.0868 22.1568C53.7597 25.6435 51.2569 29.7005 48.8096 32.1478C38.8136 42.1438 27.773 47.8508 22.061 43.809C21.728 43.5718 21.4 43.3548 21.1023 43.0874C16.2027 38.6823 21.8138 26.0724 32.0066 15.8796C34.5649 13.3213 38.8287 10.7075 42.4214 9.32996Z" fill="url(#paint2_radial)"/>
<path d="M39.7619 28.2978C42.2422 28.2978 44.2528 26.2872 44.2528 23.8069C44.2528 21.3267 42.2422 19.316 39.7619 19.316C37.2816 19.316 35.271 21.3267 35.271 23.8069C35.271 26.2872 37.2816 28.2978 39.7619 28.2978Z" fill="#455A64"/>
<path opacity="0.2" d="M39.7621 20.3252C40.6906 20.3252 41.5686 20.6885 42.2246 21.3445C42.8805 22.0005 43.2439 22.8785 43.2439 23.8069C43.2439 24.7354 42.8805 25.6134 42.2246 26.2694C41.5686 26.9253 40.6906 27.2887 39.7621 27.2887C38.8337 27.2887 37.9557 26.9253 37.2997 26.2694C35.9424 24.912 35.9424 22.7019 37.2997 21.3445C37.9557 20.6885 38.8286 20.3252 39.7621 20.3252ZM39.7621 19.316C38.6117 19.316 37.4612 19.755 36.5832 20.633C36.1657 21.05 35.8344 21.5451 35.6084 22.0901C35.3824 22.6352 35.2661 23.2194 35.2661 23.8095C35.2661 24.3995 35.3824 24.9838 35.6084 25.5288C35.8344 26.0738 36.1657 26.569 36.5832 26.9859C37.4612 27.8639 38.6117 28.3029 39.7621 28.3029C40.9126 28.3029 42.0631 27.8639 42.9411 26.9859C43.3586 26.569 43.6899 26.0738 43.9159 25.5288C44.1418 24.9838 44.2582 24.3995 44.2582 23.8095C44.2582 23.2194 44.1418 22.6352 43.9159 22.0901C43.6899 21.5451 43.3586 21.05 42.9411 20.633C42.5241 20.2149 42.0286 19.8833 41.483 19.6573C40.9375 19.4313 40.3527 19.3153 39.7621 19.316Z" fill="#424242"/>
<path d="M30.4976 36.891C32.2923 36.891 33.7472 35.4361 33.7472 33.6414C33.7472 31.8467 32.2923 30.3918 30.4976 30.3918C28.7029 30.3918 27.248 31.8467 27.248 33.6414C27.248 35.4361 28.7029 36.891 30.4976 36.891Z" fill="#455A64"/>
<path d="M42.4209 9.32985C41.4874 13.9368 49.6215 22.959 55.0863 22.1567C56.7868 17.7616 57.4831 14.7795 57.9473 9.64774C58.1845 7.04907 57.4226 6.30732 55.0156 6.58989C48.6325 7.33669 46.1095 7.8211 42.4209 9.32985Z" fill="#E53935"/>
<path opacity="0.2" d="M55.879 8.04833C56.1818 8.04833 56.3332 8.08365 56.3887 8.10384C56.429 8.19467 56.5299 8.54788 56.4442 9.51166C55.9951 14.4819 55.3492 17.3077 53.679 21.6169C52.3973 24.9725 49.9551 28.8629 47.7399 31.0781C40.0145 38.8034 31.9006 43.6072 26.562 43.6072C25.1239 43.6072 23.9028 43.259 22.934 42.5728L22.7674 42.4567C22.5101 42.2801 22.2931 42.1237 22.1115 41.9622C21.294 41.2255 20.8601 40.1002 20.8197 38.6167C20.6784 33.2176 25.7143 24.3064 33.0713 16.9494C35.3773 14.6434 39.4443 12.0901 42.9563 10.7479L42.9866 10.7328C46.5541 9.2745 49.0367 8.81532 55.1827 8.09375C55.4501 8.06347 55.6822 8.04833 55.879 8.04833ZM55.879 6.53455C55.6166 6.53455 55.3341 6.55473 55.0162 6.59005C48.633 7.33685 46.11 7.82126 42.4214 9.33001C38.8287 10.7025 34.5649 13.3163 32.0066 15.8746C21.8138 26.0674 16.2027 38.6773 21.1023 43.0824C21.3949 43.3448 21.7229 43.5668 22.061 43.804C23.3225 44.6971 24.8464 45.1159 26.562 45.1159C32.6071 45.1159 41.0237 39.9337 48.8147 32.1478C51.262 29.7005 53.7648 25.6436 55.0918 22.1568C56.7923 17.7618 57.4887 14.7796 57.9529 9.6479C58.1497 7.39236 57.6047 6.53455 55.879 6.53455Z" fill="#424242"/>
<path opacity="0.2" d="M30.4977 31.401C31.0982 31.401 31.6583 31.6332 32.0822 32.057C32.506 32.4809 32.7382 33.041 32.7382 33.6414C32.7382 34.2419 32.506 34.802 32.0822 35.2259C31.6583 35.6497 31.0982 35.8819 30.4977 35.8819C29.8973 35.8819 29.3372 35.6497 28.9133 35.2259C28.4895 34.802 28.2573 34.2419 28.2573 33.6414C28.2573 33.041 28.4895 32.4809 28.9133 32.057C29.3422 31.6332 29.9023 31.401 30.4977 31.401ZM30.4977 30.3919C29.6652 30.3919 28.8376 30.7097 28.2018 31.3455C27.5936 31.9548 27.252 32.7805 27.252 33.6414C27.252 34.5024 27.5936 35.3281 28.2018 35.9374C28.8376 36.5732 29.6652 36.891 30.4977 36.891C31.3303 36.891 32.1579 36.5732 32.7937 35.9374C33.4019 35.3281 33.7435 34.5024 33.7435 33.6414C33.7435 32.7805 33.4019 31.9548 32.7937 31.3455C32.4931 31.0425 32.1354 30.8022 31.7413 30.6385C31.3472 30.4748 30.9245 30.3909 30.4977 30.3919Z" fill="#424242"/>
<path d="M92.964 42.6066H83.532L82.02 47.0706H75.576L84.72 21.7986H91.848L100.992 47.0706H94.476L92.964 42.6066ZM91.38 37.8546L88.248 28.6026L85.152 37.8546H91.38ZM112.919 47.3226C111.071 47.3226 109.415 47.0226 107.951 46.4226C106.487 45.8226 105.311 44.9346 104.423 43.7586C103.559 42.5826 103.103 41.1666 103.055 39.5106H109.607C109.703 40.4466 110.027 41.1666 110.579 41.6706C111.131 42.1506 111.851 42.3906 112.739 42.3906C113.651 42.3906 114.371 42.1866 114.899 41.7786C115.427 41.3466 115.691 40.7586 115.691 40.0146C115.691 39.3906 115.475 38.8746 115.043 38.4666C114.635 38.0586 114.119 37.7226 113.495 37.4586C112.895 37.1946 112.031 36.8946 110.903 36.5586C109.271 36.0546 107.939 35.5506 106.907 35.0466C105.875 34.5426 104.987 33.7986 104.243 32.8146C103.499 31.8306 103.127 30.5466 103.127 28.9626C103.127 26.6106 103.979 24.7746 105.683 23.4546C107.387 22.1106 109.607 21.4386 112.343 21.4386C115.127 21.4386 117.371 22.1106 119.075 23.4546C120.779 24.7746 121.691 26.6226 121.811 28.9986H115.151C115.103 28.1826 114.803 27.5466 114.251 27.0906C113.699 26.6106 112.991 26.3706 112.127 26.3706C111.383 26.3706 110.783 26.5746 110.327 26.9826C109.871 27.3666 109.643 27.9306 109.643 28.6746C109.643 29.4906 110.027 30.1266 110.795 30.5826C111.563 31.0386 112.763 31.5306 114.395 32.0586C116.027 32.6106 117.347 33.1386 118.355 33.6426C119.387 34.1466 120.275 34.8786 121.019 35.8386C121.763 36.7986 122.135 38.0346 122.135 39.5466C122.135 40.9866 121.763 42.2946 121.019 43.4706C120.299 44.6466 119.243 45.5826 117.851 46.2786C116.459 46.9746 114.815 47.3226 112.919 47.3226ZM145.183 29.9346C145.183 31.3986 144.847 32.7426 144.175 33.9666C143.503 35.1666 142.471 36.1386 141.079 36.8826C139.687 37.6266 137.959 37.9986 135.895 37.9986H132.079V47.0706H125.923V21.7986H135.895C137.911 21.7986 139.615 22.1466 141.007 22.8426C142.399 23.5386 143.443 24.4986 144.139 25.7226C144.835 26.9466 145.183 28.3506 145.183 29.9346ZM135.427 33.1026C136.603 33.1026 137.479 32.8266 138.055 32.2746C138.631 31.7226 138.919 30.9426 138.919 29.9346C138.919 28.9266 138.631 28.1466 138.055 27.5946C137.479 27.0426 136.603 26.7666 135.427 26.7666H132.079V33.1026H135.427Z" fill="#F3F7FF"/>
<defs>
<linearGradient id="paint0_linear" x1="23.153" y1="49.1113" x2="6.83236" y2="49.1113" gradientUnits="userSpaceOnUse">
<stop stop-color="#FF6D00"/>
<stop offset="0.249" stop-color="#FF9B00"/>
<stop offset="0.513" stop-color="#FFC600"/>
<stop offset="0.721" stop-color="#FFE000"/>
<stop offset="0.844" stop-color="#FFEA00"/>
</linearGradient>
<linearGradient id="paint1_linear" x1="17.6184" y1="46.4006" x2="9.16891" y2="55.1069" gradientUnits="userSpaceOnUse">
<stop offset="0.004" stop-color="#C62828"/>
<stop offset="0.271" stop-color="#D75327"/>
<stop offset="0.598" stop-color="#E98126"/>
<stop offset="0.85" stop-color="#F59D25"/>
<stop offset="0.995" stop-color="#F9A825"/>
</linearGradient>
<radialGradient id="paint2_radial" cx="0" cy="0" r="1" gradientUnits="userSpaceOnUse" gradientTransform="translate(41.3568 16.3993) rotate(180) scale(18.4041)">
<stop offset="0.011" stop-color="#F5F5F5"/>
<stop offset="1" stop-color="#BDBDBD"/>
</radialGradient>
</defs>
</svg>
