<?xml version="1.0" encoding="utf-8"?>
<!-- Generator: Adobe Illustrator 22.0.1, SVG Export Plug-In . SVG Version: 6.00 Build 0)  -->
<svg version="1.1" id="Layer_1" xmlns="http://www.w3.org/2000/svg" xmlns:xlink="http://www.w3.org/1999/xlink" x="0px" y="0px"
	 viewBox="0 0 49.4 54" style="enable-background:new 0 0 49.4 54;" xml:space="preserve">
<style type="text/css">
	.st0{fill:#FFFFFF;}
</style>
<path class="st0" d="M0.9,21.2l17-16.1c3.6-3.4,8.3-5.2,13.3-5.1c5,0.1,9.6,2.2,13,5.8c3.5,3.5,5.4,8.3,5.2,13.3s-2.2,9.6-5.8,13
	L24.5,50.2c-2.7,2.6-6.1,3.8-9.6,3.8c-3.7,0-7.4-1.5-10.1-4.3C-0.5,44.1-0.3,35.3,5.3,30l18.3-17.3c1.8-1.7,4.1-2.6,6.6-2.5
	c2.5,0.1,4.8,1.1,6.5,2.9c1.7,1.8,2.6,4.1,2.5,6.6c-0.1,2.5-1.1,4.8-2.9,6.5l-6.6,6.2c-1.2,1.1-3,1.1-4.1-0.1
	c-1.1-1.2-1.1-3,0.1-4.1l6.7-6.3c0.7-0.6,1-1.5,1.1-2.4c0-0.9-0.3-1.8-0.9-2.5c-0.6-0.7-1.5-1-2.4-1.1c-0.9,0-1.8,0.3-2.5,0.9
	L9.3,34.2C6,37.3,5.9,42.5,9,45.7c3.1,3.3,8.3,3.4,11.5,0.3l19.1-18.1c2.5-2.4,3.9-5.6,4-9s-1.2-6.7-3.5-9.2c-2.4-2.5-5.6-3.9-9-4
	c-3.4-0.1-6.7,1.2-9.2,3.5l-17,16.1c-1.2,1.1-3,1.1-4.1-0.1C-0.3,24.1-0.2,22.3,0.9,21.2"/>
</svg>
