<svg xmlns="http://www.w3.org/2000/svg" width="49.39" height="54" viewBox="0 0 49.39 54">
	<style type="text/css">
		.st0{fill:#bebebe;}
	</style>
	<path class="st0" d="M0.87,21.2L17.87,5.1C21.47,1.7 26.17,-0.09 31.17,0C36.17,0.1 40.77,2.2 44.17,5.8C47.67,9.3 49.57,14.1 49.37,19.1C49.17,24.1 47.17,28.7 43.57,32.1L24.47,50.2C21.77,52.8 18.37,54 14.87,54C11.17,54 7.47,52.5 4.77,49.7C-0.52,44.1 -0.32,35.3 5.27,30L23.57,12.7C25.37,11 27.67,10.1 30.17,10.2C32.67,10.3 34.97,11.3 36.67,13.1C38.37,14.9 39.27,17.2 39.17,19.7C39.07,22.2 38.07,24.5 36.27,26.2L29.67,32.4C28.47,33.5 26.67,33.5 25.57,32.3C24.47,31.1 24.47,29.3 25.67,28.2L32.37,21.9C33.07,21.3 33.37,20.4 33.47,19.5C33.47,18.6 33.17,17.7 32.57,17C31.97,16.3 31.07,16 30.17,15.9C29.27,15.9 28.37,16.2 27.67,16.8L9.27,34.2C5.97,37.3 5.87,42.5 8.97,45.7C12.07,49 17.27,49.1 20.47,46L39.57,27.9C42.07,25.5 43.47,22.3 43.57,18.9C43.67,15.5 42.37,12.2 40.07,9.7C37.67,7.2 34.47,5.8 31.07,5.7C27.67,5.6 24.37,6.9 21.87,9.2L4.87,25.3C3.67,26.4 1.87,26.4 0.77,25.2C-0.32,24.1 -0.22,22.3 0.87,21.2"/>
</svg>