<svg xmlns="http://www.w3.org/2000/svg" width="10" height="14" viewBox="0 0 10 14">
  <metadata><?xpacket begin="﻿" id="W5M0MpCehiHzreSzNTczkc9d"?>
<x:xmpmeta xmlns:x="adobe:ns:meta/" x:xmptk="Adobe XMP Core 5.6-c142 79.160924, 2017/07/13-01:06:39        ">
   <rdf:RDF xmlns:rdf="http://www.w3.org/1999/02/22-rdf-syntax-ns#">
      <rdf:Description rdf:about=""/>
   </rdf:RDF>
</x:xmpmeta>
                                                                                                    
                                                                                                    
                                                                                                    
                                                                                                    
                                                                                                    
                                                                                                    
                                                                                                    
                                                                                                    
                                                                                                    
                                                                                                    
                                                                                                    
                                                                                                    
                                                                                                    
                                                                                                    
                                                                                                    
                                                                                                    
                                                                                                    
                                                                                                    
                                                                                                    
                                                                                                    
                           
<?xpacket end="w"?></metadata>
<defs>
    <style>
      .cls-1 {
        fill-rule: evenodd;
        opacity: 0.4;
      }
    </style>
  </defs>
  <path class="cls-1" d="M1419.12,910h-6.24a1.008,1.008,0,0,1-1-1.013V898.979a0.3,0.3,0,0,1,.3-0.3h7.64a0.3,0.3,0,0,1,.3.3v10.008A1.008,1.008,0,0,1,1419.12,910Zm-6.65-10.723v9.71a0.418,0.418,0,0,0,.41.417h6.24a0.418,0.418,0,0,0,.41-0.417v-9.71h-7.06Zm8.24,0h-9.42a0.3,0.3,0,0,1-.29-0.3v-1.49a0.3,0.3,0,0,1,.29-0.3h9.42a0.3,0.3,0,0,1,.29.3v1.49A0.3,0.3,0,0,1,1420.71,899.277Zm-9.12-.6h8.82v-0.894h-8.82v0.894Zm5.59-.894h-2.36a0.294,0.294,0,0,1-.29-0.3V896.3a0.294,0.294,0,0,1,.29-0.3h2.36a0.294,0.294,0,0,1,.29.3v1.191A0.294,0.294,0,0,1,1417.18,897.787Zm-2.06-.6h1.76v-0.6h-1.76v0.6Zm2.64,10.426a0.294,0.294,0,0,1-.29-0.3v-5.957a0.3,0.3,0,1,1,.59,0v5.957A0.3,0.3,0,0,1,1417.76,907.617Zm-1.76,0a0.294,0.294,0,0,1-.29-0.3v-5.957a0.29,0.29,0,1,1,.58,0v5.957A0.294,0.294,0,0,1,1416,907.617Zm-1.76,0a0.3,0.3,0,0,1-.3-0.3v-5.957a0.3,0.3,0,1,1,.59,0v5.957A0.294,0.294,0,0,1,1414.24,907.617Z" transform="translate(-1411 -896)"/>
</svg>
