<svg xmlns="http://www.w3.org/2000/svg" width="22" height="22" viewBox="0 0 22 22">
  <metadata><?xpacket begin="﻿" id="W5M0MpCehiHzreSzNTczkc9d"?>
<x:xmpmeta xmlns:x="adobe:ns:meta/" x:xmptk="Adobe XMP Core 5.6-c142 79.160924, 2017/07/13-01:06:39        ">
   <rdf:RDF xmlns:rdf="http://www.w3.org/1999/02/22-rdf-syntax-ns#">
      <rdf:Description rdf:about=""/>
   </rdf:RDF>
</x:xmpmeta>
                                                                                                    
                                                                                                    
                                                                                                    
                                                                                                    
                                                                                                    
                                                                                                    
                                                                                                    
                                                                                                    
                                                                                                    
                                                                                                    
                                                                                                    
                                                                                                    
                                                                                                    
                                                                                                    
                                                                                                    
                                                                                                    
                                                                                                    
                                                                                                    
                                                                                                    
                                                                                                    
                           
<?xpacket end="w"?></metadata>
<defs>
    <style>
      .cls-1 {
        fill: #fff;
        fill-rule: evenodd;
      }
    </style>
  </defs>
  <path id="nastroika" class="cls-1" d="M1626,116.943a3.056,3.056,0,1,0,3.06,3.056,3.06,3.06,0,0,0-3.06-3.056m0,7.029a3.973,3.973,0,1,1,3.97-3.973,3.975,3.975,0,0,1-3.97,3.973m-1.09,6.112h2.18c0.35-1.013.62-2.248,1.94-2.8,1.37-.566,2.44.179,3.33,0.615l1.54-1.547c-0.46-.96-1.16-2.016-0.61-3.338,0.52-1.255,1.59-1.524,2.79-1.924v-2.189c-1.13-.386-2.26-0.649-2.79-1.923s0.05-2.2.61-3.34l-1.54-1.545c-1.03.5-2.04,1.152-3.34,0.612-1.26-.523-1.52-1.589-1.93-2.793h-2.18c-0.39,1.129-.65,2.262-1.93,2.792a2.513,2.513,0,0,1-.99.207,5.49,5.49,0,0,1-2.35-.818l-1.54,1.545c0.52,1.078,1.14,2.051.61,3.34-0.52,1.26-1.59,1.516-2.79,1.923v2.189c1.12,0.383,2.26.646,2.79,1.924s-0.07,2.229-.61,3.339l1.54,1.546c1.33-.664,2.16-1.1,3.34-0.613,1.26,0.525,1.52,1.593,1.93,2.794m2.83,0.916h-3.48c-0.63-1.758-.72-2.487-1.63-2.863s-1.59.121-3.18,0.873l-2.46-2.465c0.8-1.684,1.25-2.26.87-3.177s-1.09-1-2.86-1.625v-3.487c1.75-.621,2.49-0.717,2.86-1.625s-0.06-1.479-.87-3.178l2.46-2.463c1.6,0.758,2.26,1.251,3.18.873s0.99-1.086,1.63-2.864h3.48c0.63,1.758.72,2.488,1.63,2.863s1.57-.109,3.18-0.872l2.46,2.463c-0.8,1.694-1.25,2.271-.87,3.177s1.09,1,2.86,1.626v3.488c-1.75.621-2.49,0.717-2.86,1.625s0.04,1.431.87,3.176l-2.46,2.465c-1.59-.752-2.26-1.256-3.17-0.876s-0.99,1.051-1.64,2.866" transform="translate(-1615 -109)"/>
</svg>
