<svg xmlns="http://www.w3.org/2000/svg"
 xmlns:xlink="http://www.w3.org/1999/xlink"
 width="71px" height="18px"  viewBox="0 0 71 18">
<path fill-rule="evenodd"  fill="#ffffff"
 d="M56.86792,6.2874756 C56.74414,8.290649 56.374268,9.726074 55.757202,10.592773 C54.98999,11.658081 53.68091,12.189941 51.82959,12.189941 C51.82959,12.189941 44.66162,12.189941 44.66162,12.189941 C44.66162,12.189941 44.66162,10.579712 44.66162,10.579712 C44.66162,10.579712 51.77649,10.579712 51.77649,10.579712 C52.861084,10.579712 53.636475,10.405884 54.104004,10.056885 C54.606445,9.681274 54.95056,8.961426 55.135498,7.8969727 C55.135498,7.8969727 44.608887,7.8969727 44.608887,7.8969727 C44.72278,5.9033203 45.093506,4.467407 45.71936,3.5911865 C46.50415,2.5272217 47.817993,1.9949951 49.660645,1.9949951 C49.660645,1.9949951 56.828125,1.9949951 56.828125,1.9949951 C56.828125,1.9949951 56.828125,3.6044922 56.828125,3.6044922 C56.828125,3.6044922 49.7135,3.6044922 49.7135,3.6044922 C48.62915,3.6044922 47.857544,3.7834473 47.39917,4.140869 C46.887573,4.5255127 46.53955,5.2408447 46.354004,6.2874756 C46.354004,6.2874756 56.86792,6.2874756 56.86792,6.2874756 ZM42.435303,4.907959 C42.21399,4.2817383 41.88867,3.75 41.45923,3.3118896 C41.02942,2.873291 40.50244,2.540039 39.878296,2.3120117 C39.41992,2.1444092 38.914307,2.0391846 38.36267,1.9949951 C38.36267,1.9949951 35.605957,1.9949951 35.605957,1.9949951 C34.80896,1.9949951 34.098267,2.1087646 33.474,2.33667 C32.84973,2.5654297 32.32263,2.8981934 31.893066,3.3360596 C31.463623,3.7750244 31.13794,4.3065186 30.917114,4.932617 C30.695435,5.5584717 30.584595,6.2695312 30.584595,7.0653076 C30.584595,7.0653076 30.584595,12.189941 30.584595,12.189941 C30.584595,12.189941 32.17871,12.189941 32.17871,12.189941 C32.17871,12.189941 32.17871,7.8969727 32.17871,7.8969727 C32.17871,7.8969727 41.18042,7.8969727 41.18042,7.8969727 C41.18042,7.8969727 41.184814,12.187622 41.184814,12.187622 C41.184814,12.187622 42.772705,12.19043 42.772705,12.19043 C42.772705,12.19043 42.767456,7.0410156 42.767456,7.0410156 C42.767456,6.244629 42.65674,5.5339355 42.435303,4.907959 ZM32.270386,6.2749023 C32.4032,5.103882 32.788574,4.3481445 33.426147,4.0079346 C33.922363,3.7416992 34.881226,3.5925293 36.301758,3.5583496 C36.334106,3.5546875 36.37195,3.552124 36.416504,3.552124 C36.50464,3.552124 36.589966,3.5527344 36.674805,3.553711 C36.759766,3.5527344 36.84497,3.552124 36.933105,3.552124 C36.980835,3.552124 37.03247,3.5557861 37.083252,3.5605469 C38.48413,3.5952148 39.43103,3.7441406 39.923096,4.0079346 C40.561035,4.3481445 40.946045,5.103882 41.078857,6.2749023 C41.078857,6.2749023 32.270386,6.2749023 32.270386,6.2749023 ZM28.696655,11.247437 C28.696655,11.247437 24.521484,7.8986816 24.521484,7.8986816 C24.521484,7.8986816 28.398315,7.9002686 28.398315,7.9002686 C28.398315,7.9002686 28.392822,7.0410156 28.392822,7.0410156 C28.392822,6.244629 28.282104,5.5339355 28.060791,4.907959 C27.839355,4.2817383 27.51416,3.75 27.084473,3.3118896 C26.655151,2.873291 26.12793,2.540039 25.503662,2.3120117 C25.04541,2.1444092 24.539673,2.0391846 23.98816,1.9949951 C23.98816,1.9949951 21.231567,1.9949951 21.231567,1.9949951 C20.43457,1.9949951 19.72351,2.1087646 19.099487,2.33667 C18.474976,2.5654297 17.947876,2.8981934 17.518555,3.3360596 C17.089111,3.7750244 16.763672,4.3065186 16.54248,4.932617 C16.3208,5.5584717 16.210327,6.2695312 16.210327,7.0653076 C16.210327,7.0653076 16.210327,12.189941 16.210327,12.189941 C16.210327,12.189941 17.8042,12.189941 17.8042,12.189941 C17.8042,12.189941 17.8042,7.8969727 17.8042,7.8969727 C17.8042,7.8969727 21.980469,7.897949 21.980469,7.897949 C21.980469,7.897949 27.719849,12.50061 27.719849,12.50061 C27.719849,12.50061 28.696655,11.247437 28.696655,11.247437 ZM19.051514,4.0079346 C19.548096,3.7416992 20.506592,3.5925293 21.927002,3.5583496 C21.959595,3.5546875 21.997437,3.552124 22.041992,3.552124 C22.130005,3.552124 22.21521,3.5527344 22.300049,3.553711 C22.385132,3.5527344 22.470459,3.552124 22.558472,3.552124 C22.606201,3.552124 22.658203,3.5557861 22.708496,3.5605469 C24.109497,3.5952148 25.056519,3.7441406 25.548584,4.0079346 C26.186401,4.3481445 26.571777,5.103882 26.70459,6.2749023 C26.70459,6.2749023 17.89563,6.2749023 17.89563,6.2749023 C18.028809,5.103882 18.414062,4.3481445 19.051514,4.0079346 ZM1.998291,1.9949951 C1.998291,1.9949951 9.166138,1.9949951 9.166138,1.9949951 C9.959595,1.9949951 10.667114,2.1087646 11.288574,2.33667 C11.910156,2.5654297 12.434937,2.8981934 12.862183,3.3360596 C13.290405,3.7750244 13.613892,4.3065186 13.834473,4.932617 C14.054932,5.5584717 14.165283,6.2695312 14.165283,7.0653076 C14.165283,7.0653076 14.165283,7.890869 14.165283,7.890869 C14.165283,7.890869 3.5854492,7.8969727 3.5854492,7.8969727 C3.5854492,7.8969727 3.5854492,12.189941 3.5854492,12.189941 C3.5854492,12.189941 1.998291,12.189941 1.998291,12.189941 C1.998291,12.189941 1.998291,1.9949951 1.998291,1.9949951 ZM3.5854492,6.2874756 C3.5854492,6.2874756 12.498779,6.2874756 12.498779,6.2874756 C12.366699,5.116211 11.982788,4.3603516 11.348389,4.0203857 C10.783936,3.7159424 9.620361,3.5644531 7.8568115,3.5644531 C7.689453,3.5644531 7.449585,3.5664062 7.1361084,3.5706787 C6.8233643,3.5758057 6.428711,3.5822754 5.9523926,3.5911865 C5.7144775,3.600708 5.489624,3.6044922 5.2781982,3.6044922 C5.0578613,3.6044922 4.8459473,3.6044922 4.6435547,3.6044922 C4.6435547,3.6044922 3.5854492,3.6044922 3.5854492,3.6044922 C3.5854492,3.6044922 3.5854492,6.2874756 3.5854492,6.2874756 ZM62.93579,15.344971 C63.225464,15.143921 63.514893,14.8927 63.792725,14.589844 C64.071045,14.28772 64.338745,13.935425 64.59302,13.53833 C64.72046,13.3396 64.845215,13.130737 64.96814,12.912109 C65.02966,12.802368 65.090576,12.690674 65.15137,12.576782 C65.21167,12.462769 65.26953,12.35022 65.327515,12.231445 C65.33411,12.218384 65.34021,12.204956 65.34656,12.191895 C64.82434,12.219116 64.37988,12.0460205 64.278076,11.395996 C64.20825,10.953613 64.26343,10.493408 64.37024,10.061035 C64.40967,9.90332 64.450806,9.535889 64.62146,9.45874 C64.802124,9.376587 65.379395,9.258057 65.41113,9.240601 C65.3479,9.360352 65.25806,9.668579 65.23132,9.776123 C65.15625,10.081543 65.099,10.398682 65.09497,10.714478 C65.09082,11.091431 65.2229,11.568359 65.530396,11.80603 C65.67908,11.488525 65.823,11.171753 65.96997,10.866333 C66.18152,10.424072 66.398926,10.003174 66.63135,9.616699 C67.092285,8.845581 67.62866,8.209595 68.19714,7.8377686 C68.21289,7.827759 68.22827,7.8184814 68.24365,7.8084717 C67.31116,6.230835 65.60925,5.1757812 63.664062,5.1757812 C63.355225,5.1757812 63.05249,5.2020264 62.757812,5.253418 C62.093994,6.5424805 61.710693,8.184082 61.641846,9.460449 C62.130005,9.169556 62.70874,9.033325 63.29358,9.1188965 C64.52612,9.298706 63.970703,10.924194 63.528687,11.491943 C63.24243,11.860107 62.79309,11.985474 62.370117,12.100952 C61.490356,12.340088 61.055542,11.843018 60.916016,10.99231 C60.688354,11.02417 60.43286,11.031616 60.420654,11.079834 C60.506958,10.740601 60.6615,10.428223 60.865845,10.157227 C60.897217,8.70459 61.433228,6.7677 62.05237,5.4265137 C59.89258,6.119751 58.32727,8.168457 58.32727,10.588135 C58.32727,13.045532 59.941162,15.119263 62.15222,15.780762 C62.405518,15.672485 62.6698,15.527954 62.93579,15.344971 ZM60.058228,12.163208 C59.887573,12.163208 59.749756,12.031616 59.749756,11.870483 C59.749756,11.708496 59.887573,11.577881 60.058228,11.577881 C60.229126,11.577881 60.367188,11.708496 60.367188,11.870483 C60.367188,12.031616 60.229126,12.163208 60.058228,12.163208 ZM63.041016,11.18396 C63.24707,10.661377 63.35974,9.820923 62.72534,9.491333 C62.245728,9.242432 61.88208,9.542114 61.631836,9.953857 C61.633057,10.041504 61.635376,10.127686 61.640137,10.2092285 C61.686035,10.981079 62.349976,12.942627 63.041016,11.18396 ZM68.18872,8.374634 C67.967285,8.619995 67.76074,8.913696 67.569824,9.237671 C67.38025,9.56311 67.205444,9.918335 67.03821,10.288696 C66.80493,10.805176 66.590576,11.350464 66.357666,11.890991 C66.609375,11.833984 66.966064,11.755127 66.923706,11.77063 C66.75098,11.833496 66.541504,11.912231 66.316895,11.9852295 C66.22803,12.189575 66.13611,12.39209 66.03906,12.591309 C65.97949,12.713257 65.91565,12.835327 65.85217,12.953003 C65.788574,13.068726 65.72363,13.183472 65.65747,13.2960205 C65.5249,13.520508 65.38635,13.737305 65.24194,13.942871 C64.95325,14.355347 64.63599,14.724121 64.30249,15.036621 C64.13452,15.192261 63.96216,15.332886 63.78882,15.459717 C63.614502,15.585083 63.4375,15.6936035 63.263184,15.789795 C63.150513,15.849609 63.039062,15.902466 62.928467,15.950439 C63.169067,15.983887 63.41443,16.001587 63.664062,16.001587 C66.611206,16.001587 69.00061,13.578003 69.00061,10.588135 C69.00061,9.705688 68.79248,8.873047 68.42334,8.136841 C68.34363,8.210449 68.26526,8.289307 68.18872,8.374634 Z"/>
</svg>